<?xml version="1.0" standalone="no"?>
<!DOCTYPE svg PUBLIC "-//W3C//DTD SVG 20010904//EN"
 "http://www.w3.org/TR/2001/REC-SVG-20010904/DTD/svg10.dtd">
<svg version="1.0" xmlns="http://www.w3.org/2000/svg"
 width="500.000000pt" height="500.000000pt" viewBox="0 0 500.000000 500.000000"
 preserveAspectRatio="xMidYMid meet">
<metadata>
Created by potrace 1.14, written by Peter Selinger 2001-2017
</metadata>
<g transform="translate(0.000000,500.000000) scale(0.100000,-0.100000)"
fill="#000000" stroke="none">
<path d="M1428 2840 c-174 -64 -268 -136 -268 -205 0 -148 202 -248 623 -310
243 -35 553 -49 817 -35 177 9 416 33 426 42 1 2 -127 3 -284 3 -287 0 -392 8
-677 46 -323 44 -471 83 -575 151 -60 39 -110 108 -110 153 0 29 52 124 68
125 4 1 23 14 42 30 42 37 36 37 -62 0z"/>
<path d="M2318 2800 c-93 -7 -370 -39 -375 -44 -1 0 137 -1 305 -2 217 0 352
-6 462 -18 210 -23 564 -82 631 -105 164 -56 269 -145 269 -229 0 -38 -42
-100 -96 -141 -25 -19 -43 -35 -41 -37 2 -2 53 15 113 38 216 81 280 158 224
268 -80 158 -526 264 -1145 275 -132 2 -288 0 -347 -5z"/>
</g>
</svg>
